<?xml version="1.0" encoding="utf-8"?>
<!-- Generator: Adobe Illustrator 16.0.0, SVG Export Plug-In . SVG Version: 6.00 Build 0)  -->
<!DOCTYPE svg PUBLIC "-//W3C//DTD SVG 1.1//EN" "http://www.w3.org/Graphics/SVG/1.1/DTD/svg11.dtd">
<svg version="1.1" id="Layer_1" xmlns="http://www.w3.org/2000/svg" xmlns:xlink="http://www.w3.org/1999/xlink" x="0px" y="0px"
	 width="256px" height="256px" viewBox="0 0 256 256" enable-background="new 0 0 256 256" xml:space="preserve">
<g>
	<polygon fill="#F9F0C5" points="22.378,172.63 83.363,233.626 0.054,255.944 	"/>
	<path fill="#406270" d="M0.054,255.944l19.975-5.353c-0.909-3.403-2.68-6.614-5.344-9.278c-2.667-2.663-5.882-4.434-9.277-5.347
		L0.054,255.944z"/>
	<polygon fill="#FFFFFF" points="232.319,84.416 171.584,23.677 182.626,12.636 243.367,73.374 	"/>
	<path fill="#FF6E69" d="M243.367,12.636c-16.773-16.773-43.968-16.773-60.741,0l60.741,60.738
		C260.141,56.6,260.141,29.406,243.367,12.636z"/>
	<polygon fill="#406270" points="232.446,84.541 83.363,233.626 71.167,221.42 220.25,72.342 	"/>
	
		<rect x="34.195" y="132.159" transform="matrix(0.7071 -0.7071 0.7071 0.7071 -58.6577 139.9511)" fill="#48707C" width="210.831" height="17.247"/>
	<polygon fill="#406270" points="208.054,60.146 58.971,209.225 46.771,197.033 195.859,47.95 	"/>
	<polygon fill="#48707C" points="195.859,47.95 46.771,197.033 34.575,184.826 183.657,35.748 	"/>
	
		<rect x="-2.398" y="95.565" transform="matrix(0.7071 -0.7071 0.7071 0.7071 -43.4995 103.3587)" fill="#406270" width="210.831" height="17.248"/>
	<path opacity="0.15" d="M232.319,84.416l11.048-11.042c16.773-16.774,16.773-43.967,0-60.738l0,0L0.054,255.944l0,0l83.309-22.318
		L232.446,84.541L232.319,84.416z"/>
</g>
</svg>
